# xmcd
# 
# Track frame offsets:
#     150
#     17040
#     32094
#     49755
#     71541
#     87854
#     101937
#     121826
#     138334
#     160980
#     178580
#     195208
#     213297
#     230692
#     248775
#     263827
#     282683
#     298100
#     314796
#     341725
# 
# Disc length: 4769
# 
# Revision: 0
# Processed by: cddbd v1.5.2PL0 Copyright (c) Steve Scherf et al.
# Submitted via: BonkEnc v1.0
# 
DISCID=31129f14
DTITLE=Various Artist - Polskie Nowe Hity 2001
DYEAR=2001
DGENRE=Blues
TTITLE0=LIROY - Hello
TTITLE1=Stachursky - Wierzę
TTITLE2=SUPTUASTIC - Dla ciebie
TTITLE3=KAJA PASCHALSKA - Tylko ty
TTITLE4=BAJM - Plama na ścianie
TTITLE5=Lombard - Machina myśli
TTITLE6=T.Love - Jazda
TTITLE7=Robert Gawliński - Nie pokonasz miłości
TTITLE8=RENI JUSIS - Nigdy ciebie nie zapomnę
TTITLE9=Norbi and T"one - Hello
TTITLE10=HEY - Cisza jak czas
TTITLE11=KOBRIA - Kawaliero
TTITLE12=BLENDERES - Ona jest tu
TTITLE13=KARRAMBA - Pocałuj  mnie w dupę
TTITLE14=AGAIA WERNER - Najczulej
TTITLE15=DJ KISIEL - Doesn"t like no other
TTITLE16=MEFFIS - Heja heja hej
TTITLE17=DJ VITUŚ - On zimny ona gorąca
TTITLE18=ALIJA BACHLEDA CURUŚ - Klimat
TTITLE19=KASIA KOWALSKA - Starczy Słówy
EXTD=
EXTT0=
EXTT1=
EXTT2=
EXTT3=
EXTT4=
EXTT5=
EXTT6=
EXTT7=
EXTT8=
EXTT9=
EXTT10=
EXTT11=
EXTT12=
EXTT13=
EXTT14=
EXTT15=
EXTT16=
EXTT17=
EXTT18=
EXTT19=
PLAYORDER=
